<mxfile host="app.diagrams.net" modified="2021-08-10T11:13:28.430Z" agent="5.0 (Windows NT 10.0; Win64; x64) AppleWebKit/537.36 (KHTML, like Gecko) Chrome/92.0.4515.131 Safari/537.36" etag="ni9GzINU8IMEdQSllxAt" version="14.9.5" type="github" pages="2">
  <diagram id="C5RBs43oDa-KdzZeNtuy" name="parsing">
    <mxGraphModel dx="1038" dy="624" grid="1" gridSize="10" guides="1" tooltips="1" connect="1" arrows="1" fold="1" page="1" pageScale="1" pageWidth="827" pageHeight="1169" math="0" shadow="0">
      <root>
        <mxCell id="WIyWlLk6GJQsqaUBKTNV-0" />
        <mxCell id="WIyWlLk6GJQsqaUBKTNV-1" parent="WIyWlLk6GJQsqaUBKTNV-0" />
        <mxCell id="6fu1KNPwRsRWhP71k715-2" value="" style="whiteSpace=wrap;html=1;aspect=fixed;" parent="WIyWlLk6GJQsqaUBKTNV-1" vertex="1">
          <mxGeometry x="510" y="309" width="311" height="311" as="geometry" />
        </mxCell>
        <mxCell id="URmaCaLnYU4HS1EAbrBs-4" value="" style="edgeStyle=orthogonalEdgeStyle;rounded=0;orthogonalLoop=1;jettySize=auto;html=1;" parent="WIyWlLk6GJQsqaUBKTNV-1" source="WIyWlLk6GJQsqaUBKTNV-3" target="URmaCaLnYU4HS1EAbrBs-2" edge="1">
          <mxGeometry relative="1" as="geometry" />
        </mxCell>
        <mxCell id="WIyWlLk6GJQsqaUBKTNV-3" value="Start" style="rounded=1;whiteSpace=wrap;html=1;fontSize=12;glass=0;strokeWidth=1;shadow=0;" parent="WIyWlLk6GJQsqaUBKTNV-1" vertex="1">
          <mxGeometry x="160" y="99" width="120" height="40" as="geometry" />
        </mxCell>
        <mxCell id="WIyWlLk6GJQsqaUBKTNV-4" value="No" style="rounded=0;html=1;jettySize=auto;orthogonalLoop=1;fontSize=11;endArrow=block;endFill=0;endSize=8;strokeWidth=1;shadow=0;labelBackgroundColor=none;edgeStyle=orthogonalEdgeStyle;" parent="WIyWlLk6GJQsqaUBKTNV-1" source="WIyWlLk6GJQsqaUBKTNV-6" target="WIyWlLk6GJQsqaUBKTNV-10" edge="1">
          <mxGeometry y="20" relative="1" as="geometry">
            <mxPoint as="offset" />
          </mxGeometry>
        </mxCell>
        <mxCell id="WIyWlLk6GJQsqaUBKTNV-5" value="Yes" style="edgeStyle=orthogonalEdgeStyle;rounded=0;html=1;jettySize=auto;orthogonalLoop=1;fontSize=11;endArrow=block;endFill=0;endSize=8;strokeWidth=1;shadow=0;labelBackgroundColor=none;" parent="WIyWlLk6GJQsqaUBKTNV-1" source="WIyWlLk6GJQsqaUBKTNV-6" edge="1">
          <mxGeometry y="10" relative="1" as="geometry">
            <mxPoint as="offset" />
            <mxPoint x="320" y="309" as="targetPoint" />
          </mxGeometry>
        </mxCell>
        <mxCell id="WIyWlLk6GJQsqaUBKTNV-6" value="Hard code" style="rhombus;whiteSpace=wrap;html=1;shadow=0;fontFamily=Helvetica;fontSize=12;align=center;strokeWidth=1;spacing=6;spacingTop=-4;" parent="WIyWlLk6GJQsqaUBKTNV-1" vertex="1">
          <mxGeometry x="170" y="269" width="100" height="80" as="geometry" />
        </mxCell>
        <mxCell id="WIyWlLk6GJQsqaUBKTNV-9" value="Yes" style="edgeStyle=orthogonalEdgeStyle;rounded=0;html=1;jettySize=auto;orthogonalLoop=1;fontSize=11;endArrow=block;endFill=0;endSize=8;strokeWidth=1;shadow=0;labelBackgroundColor=none;" parent="WIyWlLk6GJQsqaUBKTNV-1" source="WIyWlLk6GJQsqaUBKTNV-10" edge="1">
          <mxGeometry y="10" relative="1" as="geometry">
            <mxPoint as="offset" />
            <mxPoint x="320" y="429" as="targetPoint" />
          </mxGeometry>
        </mxCell>
        <mxCell id="WIyWlLk6GJQsqaUBKTNV-10" value="Expression" style="rhombus;whiteSpace=wrap;html=1;shadow=0;fontFamily=Helvetica;fontSize=12;align=center;strokeWidth=1;spacing=6;spacingTop=-4;" parent="WIyWlLk6GJQsqaUBKTNV-1" vertex="1">
          <mxGeometry x="170" y="389" width="100" height="80" as="geometry" />
        </mxCell>
        <mxCell id="cBiHzb_ngarxpg5YIPHh-1" style="edgeStyle=orthogonalEdgeStyle;rounded=0;orthogonalLoop=1;jettySize=auto;html=1;" parent="WIyWlLk6GJQsqaUBKTNV-1" source="URmaCaLnYU4HS1EAbrBs-2" edge="1">
          <mxGeometry relative="1" as="geometry">
            <mxPoint x="70" y="250" as="targetPoint" />
          </mxGeometry>
        </mxCell>
        <mxCell id="URmaCaLnYU4HS1EAbrBs-2" value="RDD with JSON data &lt;br&gt;and config&lt;br&gt;details" style="shape=parallelogram;perimeter=parallelogramPerimeter;whiteSpace=wrap;html=1;fixedSize=1;" parent="WIyWlLk6GJQsqaUBKTNV-1" vertex="1">
          <mxGeometry x="130" y="179" width="180" height="60" as="geometry" />
        </mxCell>
        <mxCell id="f21nMO-rB-nOfHqU8Tqs-0" style="edgeStyle=orthogonalEdgeStyle;rounded=0;orthogonalLoop=1;jettySize=auto;html=1;" parent="WIyWlLk6GJQsqaUBKTNV-1" source="URmaCaLnYU4HS1EAbrBs-5" target="URmaCaLnYU4HS1EAbrBs-2" edge="1">
          <mxGeometry relative="1" as="geometry" />
        </mxCell>
        <mxCell id="URmaCaLnYU4HS1EAbrBs-5" value="&lt;b&gt;&lt;u&gt;Config Details&lt;/u&gt;&lt;/b&gt;&lt;br&gt;output column name&lt;br&gt;metadata info&lt;br&gt;to be dropped&lt;br&gt;sequence&lt;br&gt;is date&lt;br&gt;input date format&lt;br&gt;output date format&lt;br&gt;cast to&lt;br&gt;round to&lt;br&gt;hard code&lt;br&gt;expression" style="whiteSpace=wrap;html=1;" parent="WIyWlLk6GJQsqaUBKTNV-1" vertex="1">
          <mxGeometry x="400" y="99" width="120" height="170" as="geometry" />
        </mxCell>
        <mxCell id="URmaCaLnYU4HS1EAbrBs-7" value="No" style="rounded=0;html=1;jettySize=auto;orthogonalLoop=1;fontSize=11;endArrow=block;endFill=0;endSize=8;strokeWidth=1;shadow=0;labelBackgroundColor=none;edgeStyle=orthogonalEdgeStyle;exitX=0.5;exitY=1;exitDx=0;exitDy=0;" parent="WIyWlLk6GJQsqaUBKTNV-1" source="WIyWlLk6GJQsqaUBKTNV-10" edge="1">
          <mxGeometry y="20" relative="1" as="geometry">
            <mxPoint as="offset" />
            <mxPoint x="230" y="519" as="sourcePoint" />
            <mxPoint x="220" y="509" as="targetPoint" />
          </mxGeometry>
        </mxCell>
        <mxCell id="URmaCaLnYU4HS1EAbrBs-9" style="edgeStyle=orthogonalEdgeStyle;rounded=0;orthogonalLoop=1;jettySize=auto;html=1;exitX=1;exitY=0.5;exitDx=0;exitDy=0;entryX=0;entryY=0.5;entryDx=0;entryDy=0;" parent="WIyWlLk6GJQsqaUBKTNV-1" source="URmaCaLnYU4HS1EAbrBs-8" target="URmaCaLnYU4HS1EAbrBs-13" edge="1">
          <mxGeometry relative="1" as="geometry">
            <mxPoint x="310" y="549" as="targetPoint" />
          </mxGeometry>
        </mxCell>
        <mxCell id="URmaCaLnYU4HS1EAbrBs-15" value="" style="edgeStyle=orthogonalEdgeStyle;rounded=0;orthogonalLoop=1;jettySize=auto;html=1;" parent="WIyWlLk6GJQsqaUBKTNV-1" source="URmaCaLnYU4HS1EAbrBs-8" target="URmaCaLnYU4HS1EAbrBs-14" edge="1">
          <mxGeometry relative="1" as="geometry" />
        </mxCell>
        <mxCell id="URmaCaLnYU4HS1EAbrBs-8" value="parent field is struct type" style="rhombus;whiteSpace=wrap;html=1;" parent="WIyWlLk6GJQsqaUBKTNV-1" vertex="1">
          <mxGeometry x="170" y="509" width="100" height="80" as="geometry" />
        </mxCell>
        <mxCell id="URmaCaLnYU4HS1EAbrBs-10" value="No" style="text;html=1;strokeColor=none;fillColor=none;align=center;verticalAlign=middle;whiteSpace=wrap;rounded=0;" parent="WIyWlLk6GJQsqaUBKTNV-1" vertex="1">
          <mxGeometry x="270" y="519" width="40" height="20" as="geometry" />
        </mxCell>
        <mxCell id="URmaCaLnYU4HS1EAbrBs-11" value="&lt;span&gt;Hard code the given&lt;/span&gt;&lt;br&gt;&lt;span&gt;value in output column&lt;/span&gt;" style="whiteSpace=wrap;html=1;" parent="WIyWlLk6GJQsqaUBKTNV-1" vertex="1">
          <mxGeometry x="320" y="279" width="120" height="60" as="geometry" />
        </mxCell>
        <mxCell id="URmaCaLnYU4HS1EAbrBs-12" value="&lt;span&gt;Calculate value of output column using expression&lt;/span&gt;" style="whiteSpace=wrap;html=1;" parent="WIyWlLk6GJQsqaUBKTNV-1" vertex="1">
          <mxGeometry x="320" y="399" width="120" height="60" as="geometry" />
        </mxCell>
        <mxCell id="URmaCaLnYU4HS1EAbrBs-13" value="Put the data in control point" style="whiteSpace=wrap;html=1;" parent="WIyWlLk6GJQsqaUBKTNV-1" vertex="1">
          <mxGeometry x="320" y="519" width="120" height="60" as="geometry" />
        </mxCell>
        <mxCell id="URmaCaLnYU4HS1EAbrBs-18" value="" style="edgeStyle=orthogonalEdgeStyle;rounded=0;orthogonalLoop=1;jettySize=auto;html=1;" parent="WIyWlLk6GJQsqaUBKTNV-1" source="URmaCaLnYU4HS1EAbrBs-14" target="URmaCaLnYU4HS1EAbrBs-17" edge="1">
          <mxGeometry relative="1" as="geometry" />
        </mxCell>
        <mxCell id="URmaCaLnYU4HS1EAbrBs-40" value="" style="edgeStyle=orthogonalEdgeStyle;rounded=0;orthogonalLoop=1;jettySize=auto;html=1;" parent="WIyWlLk6GJQsqaUBKTNV-1" source="URmaCaLnYU4HS1EAbrBs-14" target="URmaCaLnYU4HS1EAbrBs-39" edge="1">
          <mxGeometry relative="1" as="geometry" />
        </mxCell>
        <mxCell id="URmaCaLnYU4HS1EAbrBs-14" value="Split the meta data info on &#39;.&#39; and loop throug all the fields" style="whiteSpace=wrap;html=1;" parent="WIyWlLk6GJQsqaUBKTNV-1" vertex="1">
          <mxGeometry x="160" y="679" width="120" height="60" as="geometry" />
        </mxCell>
        <mxCell id="URmaCaLnYU4HS1EAbrBs-16" value="Yes" style="text;html=1;align=center;verticalAlign=middle;resizable=0;points=[];autosize=1;strokeColor=none;" parent="WIyWlLk6GJQsqaUBKTNV-1" vertex="1">
          <mxGeometry x="220" y="639" width="30" height="20" as="geometry" />
        </mxCell>
        <mxCell id="URmaCaLnYU4HS1EAbrBs-20" value="" style="edgeStyle=orthogonalEdgeStyle;rounded=0;orthogonalLoop=1;jettySize=auto;html=1;" parent="WIyWlLk6GJQsqaUBKTNV-1" source="URmaCaLnYU4HS1EAbrBs-17" target="URmaCaLnYU4HS1EAbrBs-19" edge="1">
          <mxGeometry relative="1" as="geometry" />
        </mxCell>
        <mxCell id="URmaCaLnYU4HS1EAbrBs-24" value="" style="edgeStyle=orthogonalEdgeStyle;rounded=0;orthogonalLoop=1;jettySize=auto;html=1;" parent="WIyWlLk6GJQsqaUBKTNV-1" source="URmaCaLnYU4HS1EAbrBs-17" target="URmaCaLnYU4HS1EAbrBs-23" edge="1">
          <mxGeometry relative="1" as="geometry" />
        </mxCell>
        <mxCell id="URmaCaLnYU4HS1EAbrBs-17" value="Field contains &#39;[&#39;" style="rhombus;whiteSpace=wrap;html=1;" parent="WIyWlLk6GJQsqaUBKTNV-1" vertex="1">
          <mxGeometry x="319" y="669" width="110" height="80" as="geometry" />
        </mxCell>
        <mxCell id="URmaCaLnYU4HS1EAbrBs-22" value="" style="edgeStyle=orthogonalEdgeStyle;rounded=0;orthogonalLoop=1;jettySize=auto;html=1;entryX=0.5;entryY=0;entryDx=0;entryDy=0;" parent="WIyWlLk6GJQsqaUBKTNV-1" source="URmaCaLnYU4HS1EAbrBs-19" target="URmaCaLnYU4HS1EAbrBs-27" edge="1">
          <mxGeometry relative="1" as="geometry">
            <mxPoint x="650" y="709" as="targetPoint" />
          </mxGeometry>
        </mxCell>
        <mxCell id="URmaCaLnYU4HS1EAbrBs-26" value="" style="edgeStyle=orthogonalEdgeStyle;rounded=0;orthogonalLoop=1;jettySize=auto;html=1;" parent="WIyWlLk6GJQsqaUBKTNV-1" source="URmaCaLnYU4HS1EAbrBs-19" target="URmaCaLnYU4HS1EAbrBs-25" edge="1">
          <mxGeometry relative="1" as="geometry" />
        </mxCell>
        <mxCell id="URmaCaLnYU4HS1EAbrBs-19" value="Field contains &#39;(&#39;" style="rhombus;whiteSpace=wrap;html=1;" parent="WIyWlLk6GJQsqaUBKTNV-1" vertex="1">
          <mxGeometry x="532.5" y="669" width="100" height="80" as="geometry" />
        </mxCell>
        <mxCell id="URmaCaLnYU4HS1EAbrBs-30" style="edgeStyle=orthogonalEdgeStyle;rounded=0;orthogonalLoop=1;jettySize=auto;html=1;exitX=0.5;exitY=1;exitDx=0;exitDy=0;entryX=0.5;entryY=1;entryDx=0;entryDy=0;" parent="WIyWlLk6GJQsqaUBKTNV-1" source="URmaCaLnYU4HS1EAbrBs-23" target="URmaCaLnYU4HS1EAbrBs-14" edge="1">
          <mxGeometry relative="1" as="geometry">
            <mxPoint x="220" y="749" as="targetPoint" />
            <Array as="points">
              <mxPoint x="374" y="939" />
              <mxPoint x="220" y="939" />
            </Array>
          </mxGeometry>
        </mxCell>
        <mxCell id="URmaCaLnYU4HS1EAbrBs-23" value="Add a field to the output data frame with output column name by exploding number of times &#39;[&#39; occurs&amp;nbsp;" style="whiteSpace=wrap;html=1;" parent="WIyWlLk6GJQsqaUBKTNV-1" vertex="1">
          <mxGeometry x="280" y="799" width="188" height="60" as="geometry" />
        </mxCell>
        <mxCell id="URmaCaLnYU4HS1EAbrBs-32" style="edgeStyle=orthogonalEdgeStyle;rounded=0;orthogonalLoop=1;jettySize=auto;html=1;exitX=0.5;exitY=1;exitDx=0;exitDy=0;" parent="WIyWlLk6GJQsqaUBKTNV-1" source="URmaCaLnYU4HS1EAbrBs-25" edge="1">
          <mxGeometry relative="1" as="geometry">
            <mxPoint x="370" y="939" as="targetPoint" />
            <Array as="points">
              <mxPoint x="583" y="939" />
            </Array>
          </mxGeometry>
        </mxCell>
        <mxCell id="URmaCaLnYU4HS1EAbrBs-25" value="&lt;span&gt;Add the field to the data frame with output column name with the value corresponding to the position given between ()&lt;/span&gt;" style="whiteSpace=wrap;html=1;" parent="WIyWlLk6GJQsqaUBKTNV-1" vertex="1">
          <mxGeometry x="495" y="799" width="175" height="60" as="geometry" />
        </mxCell>
        <mxCell id="URmaCaLnYU4HS1EAbrBs-33" style="edgeStyle=orthogonalEdgeStyle;rounded=0;orthogonalLoop=1;jettySize=auto;html=1;exitX=0.5;exitY=1;exitDx=0;exitDy=0;" parent="WIyWlLk6GJQsqaUBKTNV-1" source="URmaCaLnYU4HS1EAbrBs-27" edge="1">
          <mxGeometry relative="1" as="geometry">
            <mxPoint x="510" y="939" as="targetPoint" />
            <Array as="points">
              <mxPoint x="750" y="939" />
            </Array>
          </mxGeometry>
        </mxCell>
        <mxCell id="URmaCaLnYU4HS1EAbrBs-27" value="Add the field to the data frame with output column name" style="whiteSpace=wrap;html=1;" parent="WIyWlLk6GJQsqaUBKTNV-1" vertex="1">
          <mxGeometry x="690" y="799" width="120" height="60" as="geometry" />
        </mxCell>
        <mxCell id="URmaCaLnYU4HS1EAbrBs-35" value="No" style="text;html=1;align=center;verticalAlign=middle;resizable=0;points=[];autosize=1;strokeColor=none;" parent="WIyWlLk6GJQsqaUBKTNV-1" vertex="1">
          <mxGeometry x="640" y="689" width="30" height="20" as="geometry" />
        </mxCell>
        <mxCell id="URmaCaLnYU4HS1EAbrBs-36" value="No" style="text;html=1;align=center;verticalAlign=middle;resizable=0;points=[];autosize=1;strokeColor=none;" parent="WIyWlLk6GJQsqaUBKTNV-1" vertex="1">
          <mxGeometry x="450" y="689" width="30" height="20" as="geometry" />
        </mxCell>
        <mxCell id="URmaCaLnYU4HS1EAbrBs-37" value="Yes" style="text;html=1;align=center;verticalAlign=middle;resizable=0;points=[];autosize=1;strokeColor=none;" parent="WIyWlLk6GJQsqaUBKTNV-1" vertex="1">
          <mxGeometry x="384" y="759" width="30" height="20" as="geometry" />
        </mxCell>
        <mxCell id="URmaCaLnYU4HS1EAbrBs-38" value="Yes" style="text;html=1;align=center;verticalAlign=middle;resizable=0;points=[];autosize=1;strokeColor=none;" parent="WIyWlLk6GJQsqaUBKTNV-1" vertex="1">
          <mxGeometry x="525" y="759" width="30" height="20" as="geometry" />
        </mxCell>
        <mxCell id="URmaCaLnYU4HS1EAbrBs-42" value="" style="edgeStyle=orthogonalEdgeStyle;rounded=0;orthogonalLoop=1;jettySize=auto;html=1;" parent="WIyWlLk6GJQsqaUBKTNV-1" source="URmaCaLnYU4HS1EAbrBs-39" target="URmaCaLnYU4HS1EAbrBs-41" edge="1">
          <mxGeometry relative="1" as="geometry" />
        </mxCell>
        <mxCell id="cBiHzb_ngarxpg5YIPHh-4" style="edgeStyle=orthogonalEdgeStyle;rounded=0;orthogonalLoop=1;jettySize=auto;html=1;entryX=0.5;entryY=1;entryDx=0;entryDy=0;" parent="WIyWlLk6GJQsqaUBKTNV-1" source="URmaCaLnYU4HS1EAbrBs-39" target="cBiHzb_ngarxpg5YIPHh-0" edge="1">
          <mxGeometry relative="1" as="geometry" />
        </mxCell>
        <mxCell id="URmaCaLnYU4HS1EAbrBs-39" value="After the loop ends return the resultant dataframe" style="whiteSpace=wrap;html=1;" parent="WIyWlLk6GJQsqaUBKTNV-1" vertex="1">
          <mxGeometry x="10" y="679" width="120" height="60" as="geometry" />
        </mxCell>
        <mxCell id="URmaCaLnYU4HS1EAbrBs-41" value="End" style="rounded=1;whiteSpace=wrap;html=1;" parent="WIyWlLk6GJQsqaUBKTNV-1" vertex="1">
          <mxGeometry x="10" y="779" width="120" height="60" as="geometry" />
        </mxCell>
        <mxCell id="XpdEg-C_2FEA5WS1l5iR-0" value="&lt;b&gt;&lt;font style=&quot;font-size: 15px&quot;&gt;GENERIC JSON PARSING&lt;/font&gt;&lt;/b&gt;" style="whiteSpace=wrap;html=1;" parent="WIyWlLk6GJQsqaUBKTNV-1" vertex="1">
          <mxGeometry x="580" y="39" width="200" height="81" as="geometry" />
        </mxCell>
        <mxCell id="cBiHzb_ngarxpg5YIPHh-3" style="edgeStyle=orthogonalEdgeStyle;rounded=0;orthogonalLoop=1;jettySize=auto;html=1;" parent="WIyWlLk6GJQsqaUBKTNV-1" source="cBiHzb_ngarxpg5YIPHh-0" target="WIyWlLk6GJQsqaUBKTNV-6" edge="1">
          <mxGeometry relative="1" as="geometry" />
        </mxCell>
        <mxCell id="cBiHzb_ngarxpg5YIPHh-0" value="Loop through the configuration ordered by sequence" style="whiteSpace=wrap;html=1;" parent="WIyWlLk6GJQsqaUBKTNV-1" vertex="1">
          <mxGeometry x="10" y="250" width="120" height="60" as="geometry" />
        </mxCell>
        <mxCell id="6fu1KNPwRsRWhP71k715-1" value="&lt;ul&gt;&lt;li&gt;&lt;b&gt;output column name&lt;/b&gt; - name of the field that should come into the output&lt;/li&gt;&lt;li&gt;&lt;b&gt;metadata info&lt;/b&gt; - used to calculate output column mentioned above from the JSON data&lt;/li&gt;&lt;li&gt;&lt;b&gt;to be dropped&lt;/b&gt; - used to indicate if the output column mentioned above needs to be dropped&lt;/li&gt;&lt;li&gt;&lt;b&gt;sequence&lt;/b&gt; - at which sequence this output column needs to be calculated&lt;/li&gt;&lt;li&gt;&lt;b&gt;is date&lt;/b&gt; - if the output column is date then true&lt;/li&gt;&lt;li&gt;&lt;b&gt;input date format&lt;/b&gt; - if is date is true, then its input format&lt;/li&gt;&lt;li&gt;&lt;b&gt;output date format&lt;/b&gt; - if is date is true, then its output format&lt;/li&gt;&lt;li&gt;&lt;b&gt;cast to&lt;/b&gt; - used for type casting the input data&lt;/li&gt;&lt;li&gt;&lt;b&gt;round to&lt;/b&gt; - if type cast to double, then specify how many decimals required&lt;/li&gt;&lt;li&gt;&lt;b&gt;hard code&lt;/b&gt; - if we need to hard code some value like type = &#39;Application&#39;&lt;/li&gt;&lt;li&gt;&lt;b&gt;expression&lt;/b&gt; - used to evaluate a field from some expression&lt;/li&gt;&lt;/ul&gt;" style="text;html=1;strokeColor=none;fillColor=none;align=left;verticalAlign=middle;whiteSpace=wrap;rounded=0;" parent="WIyWlLk6GJQsqaUBKTNV-1" vertex="1">
          <mxGeometry x="495" y="279" width="325" height="361" as="geometry" />
        </mxCell>
      </root>
    </mxGraphModel>
  </diagram>
  <diagram id="u2HsZxxzuq3RQ41EybqB" name="enrichment">
    <mxGraphModel dx="1038" dy="624" grid="1" gridSize="10" guides="1" tooltips="1" connect="1" arrows="1" fold="1" page="1" pageScale="1" pageWidth="827" pageHeight="1169" math="0" shadow="0">
      <root>
        <mxCell id="BqmCzdSlq5FXhEj4esph-0" />
        <mxCell id="BqmCzdSlq5FXhEj4esph-1" parent="BqmCzdSlq5FXhEj4esph-0" />
        <mxCell id="u_ZyRXv850AEJHFOUkwA-3" style="edgeStyle=orthogonalEdgeStyle;rounded=0;orthogonalLoop=1;jettySize=auto;html=1;" edge="1" parent="BqmCzdSlq5FXhEj4esph-1" source="BqmCzdSlq5FXhEj4esph-7" target="u_ZyRXv850AEJHFOUkwA-0">
          <mxGeometry relative="1" as="geometry" />
        </mxCell>
        <mxCell id="BqmCzdSlq5FXhEj4esph-7" value="&lt;b&gt;&lt;u&gt;Dynamic Enrichment Table&lt;/u&gt;&lt;/b&gt;&lt;br&gt;enrichment_id&lt;br&gt;extract columns&lt;br&gt;master join columns&lt;br&gt;enrich join columns&lt;br&gt;join expression&lt;br&gt;join type&lt;br&gt;additional columns expresssion&lt;br&gt;column data types&lt;br&gt;drop columns&lt;br&gt;column rename" style="rounded=0;whiteSpace=wrap;html=1;" parent="BqmCzdSlq5FXhEj4esph-1" vertex="1">
          <mxGeometry x="650" width="177" height="170" as="geometry" />
        </mxCell>
        <mxCell id="BLwmwBdNt_kXqMHtZqJM-30" value="&lt;b&gt;&lt;font style=&quot;font-size: 14px&quot;&gt;DYNAMIC ENRICHMENT&lt;/font&gt;&lt;/b&gt;" style="whiteSpace=wrap;html=1;" parent="BqmCzdSlq5FXhEj4esph-1" vertex="1">
          <mxGeometry width="180" height="100" as="geometry" />
        </mxCell>
        <mxCell id="u_ZyRXv850AEJHFOUkwA-2" value="" style="edgeStyle=orthogonalEdgeStyle;rounded=0;orthogonalLoop=1;jettySize=auto;html=1;" edge="1" parent="BqmCzdSlq5FXhEj4esph-1" source="Aibkj8R6mR7rruKetEr3-0" target="u_ZyRXv850AEJHFOUkwA-0">
          <mxGeometry relative="1" as="geometry" />
        </mxCell>
        <mxCell id="Aibkj8R6mR7rruKetEr3-0" value="Start" style="rounded=1;whiteSpace=wrap;html=1;" vertex="1" parent="BqmCzdSlq5FXhEj4esph-1">
          <mxGeometry x="190" y="10" width="120" height="60" as="geometry" />
        </mxCell>
        <mxCell id="u_ZyRXv850AEJHFOUkwA-4" style="edgeStyle=orthogonalEdgeStyle;rounded=0;orthogonalLoop=1;jettySize=auto;html=1;" edge="1" parent="BqmCzdSlq5FXhEj4esph-1" source="Aibkj8R6mR7rruKetEr3-1">
          <mxGeometry relative="1" as="geometry">
            <mxPoint x="580" y="80" as="targetPoint" />
          </mxGeometry>
        </mxCell>
        <mxCell id="Aibkj8R6mR7rruKetEr3-1" value="&lt;b&gt;&lt;u&gt;Read Enrichment Table&lt;/u&gt;&lt;/b&gt;&lt;br&gt;read_enrichment_id&lt;br&gt;connection_string_id&lt;br&gt;workflow_id&lt;br&gt;cache&lt;br&gt;cache_interval&lt;br&gt;broadcast" style="rounded=0;whiteSpace=wrap;html=1;" vertex="1" parent="BqmCzdSlq5FXhEj4esph-1">
          <mxGeometry x="650" y="170" width="177" height="110" as="geometry" />
        </mxCell>
        <mxCell id="u_ZyRXv850AEJHFOUkwA-5" style="edgeStyle=orthogonalEdgeStyle;rounded=0;orthogonalLoop=1;jettySize=auto;html=1;" edge="1" parent="BqmCzdSlq5FXhEj4esph-1" source="Aibkj8R6mR7rruKetEr3-2">
          <mxGeometry relative="1" as="geometry">
            <mxPoint x="580" y="220" as="targetPoint" />
          </mxGeometry>
        </mxCell>
        <mxCell id="Aibkj8R6mR7rruKetEr3-2" value="&lt;b&gt;&lt;u&gt;Read Enrichment Add Att Table&lt;/u&gt;&lt;/b&gt;&lt;br&gt;read_enrichment_id&lt;br&gt;connection_att_master_id&lt;br&gt;value" style="rounded=0;whiteSpace=wrap;html=1;" vertex="1" parent="BqmCzdSlq5FXhEj4esph-1">
          <mxGeometry x="650" y="280" width="177" height="90" as="geometry" />
        </mxCell>
        <mxCell id="u_ZyRXv850AEJHFOUkwA-0" value="inputDF, workflow_id" style="shape=parallelogram;perimeter=parallelogramPerimeter;whiteSpace=wrap;html=1;fixedSize=1;" vertex="1" parent="BqmCzdSlq5FXhEj4esph-1">
          <mxGeometry x="350" y="10" width="160" height="60" as="geometry" />
        </mxCell>
      </root>
    </mxGraphModel>
  </diagram>
</mxfile>
